<?xml version="1.0" encoding="utf-8"?>
<!-- Generator: Adobe Illustrator 16.0.0, SVG Export Plug-In . SVG Version: 6.00 Build 0)  -->
<!DOCTYPE svg PUBLIC "-//W3C//DTD SVG 1.1//EN" "http://www.w3.org/Graphics/SVG/1.1/DTD/svg11.dtd">
<svg version="1.1" id="Ebene_1" xmlns="http://www.w3.org/2000/svg" xmlns:xlink="http://www.w3.org/1999/xlink" x="0px" y="0px"
	 width="16px" height="16px" viewBox="8 8 16 16" enable-background="new 8 8 16 16" xml:space="preserve">
<path fill="#26A6D1" d="M16,8c-4.418,0-8,3.582-8,8s3.582,8,8,8s8-3.582,8-8S20.418,8,16,8z M16,22.5c-3.59,0-6.5-2.91-6.5-6.5
	s2.91-6.5,6.5-6.5s6.5,2.91,6.5,6.5S19.59,22.5,16,22.5z"/>
<path fill="#E2574C" d="M20.157,11.843l-3.096,5.218l-2.122-2.122L20.157,11.843z"/>
<path fill="#E4E7E7" d="M11.844,20.157l5.218-3.097l-2.122-2.121L11.844,20.157z"/>
</svg>
