<?xml version="1.0" encoding="utf-8"?>
<!-- Generator: Adobe Illustrator 16.0.0, SVG Export Plug-In . SVG Version: 6.00 Build 0)  -->
<!DOCTYPE svg PUBLIC "-//W3C//DTD SVG 1.1//EN" "http://www.w3.org/Graphics/SVG/1.1/DTD/svg11.dtd">
<svg version="1.1" id="Ebene_1" xmlns="http://www.w3.org/2000/svg" xmlns:xlink="http://www.w3.org/1999/xlink" x="0px" y="0px"
	 width="16px" height="16px" viewBox="0 0 16 16" enable-background="new 0 0 16 16" xml:space="preserve">
<path fill="#B7B7B7" d="M8,0C3.582,0,0,3.582,0,8s3.582,8,8,8s8-3.582,8-8S12.418,0,8,0z M8,14.5c-3.59,0-6.5-2.91-6.5-6.5
	S4.41,1.5,8,1.5s6.5,2.91,6.5,6.5S11.59,14.5,8,14.5z"/>
<path fill="#777777" d="M12.157,3.843L9.061,9.061L6.939,6.939L12.157,3.843z"/>
<path fill="#E4E7E7" d="M3.844,12.157l5.219-3.097L6.939,6.939L3.844,12.157z"/>
</svg>
