<?xml version="1.0" encoding="utf-8"?>
<!-- Generator: Adobe Illustrator 16.0.0, SVG Export Plug-In . SVG Version: 6.00 Build 0)  -->
<!DOCTYPE svg PUBLIC "-//W3C//DTD SVG 1.1//EN" "http://www.w3.org/Graphics/SVG/1.1/DTD/svg11.dtd">
<svg version="1.1"
	 id="svg2" sodipodi:docname="word.svg" inkscape:version="0.48.3.1 r9886" xmlns:inkscape="http://www.inkscape.org/namespaces/inkscape" xmlns:svg="http://www.w3.org/2000/svg" xmlns:dc="http://purl.org/dc/elements/1.1/" xmlns:sodipodi="http://sodipodi.sourceforge.net/DTD/sodipodi-0.dtd" xmlns:rdf="http://www.w3.org/1999/02/22-rdf-syntax-ns#" xmlns:cc="http://creativecommons.org/ns#"
	 xmlns="http://www.w3.org/2000/svg" xmlns:xlink="http://www.w3.org/1999/xlink" x="0px" y="0px" width="16px" height="16px"
	 viewBox="47.019 45.75 16 16" enable-background="new 47.019 45.75 16 16" xml:space="preserve">
<sodipodi:namedview  inkscape:window-x="0" fit-margin-right="0" inkscape:current-layer="svg2" inkscape:window-height="960" inkscape:pageopacity="0" inkscape:window-y="0" inkscape:window-width="1280" inkscape:window-maximized="1" fit-margin-bottom="0" inkscape:pageshadow="2" bordercolor="#666666" pagecolor="#ffffff" fit-margin-left="0" borderopacity="1" id="namedview122" fit-margin-top="0" objecttolerance="10" inkscape:zoom="1.0905983" inkscape:cx="344.89442" gridtolerance="10" guidetolerance="10" showgrid="false" inkscape:cy="53.75">
	</sodipodi:namedview>
<path id="path10" inkscape:connector-curvature="0" fill="#207245" d="M55.387,45.935h1.08c0,0.485,0,0.969,0,1.454
	c1.819,0,3.639,0.003,5.458-0.005c0.307,0.013,0.646-0.009,0.912,0.174c0.188,0.269,0.165,0.611,0.179,0.919
	c-0.01,3.155-0.006,6.309-0.004,9.462c-0.01,0.529,0.049,1.068-0.063,1.591c-0.072,0.378-0.526,0.387-0.83,0.399
	c-1.883,0.006-3.768-0.004-5.652,0c0,0.545,0,1.091,0,1.636h-1.129c-2.77-0.504-5.545-0.969-8.319-1.454c0-4.24,0-8.48,0-12.721
	C49.809,46.905,52.599,46.427,55.387,45.935z"/>
<path id="path48" inkscape:connector-curvature="0" fill="#FFFFFF" d="M56.467,47.934c1.999,0,3.998,0,5.997,0
	c0,3.817,0,7.634,0,11.451c-1.999,0-3.998,0-5.997,0c0-0.364,0-0.728,0-1.091c0.485,0,0.969,0,1.454,0c0-0.424,0-0.849,0-1.272
	c-0.485,0-0.969,0-1.454,0c0-0.241,0-0.485,0-0.727c0.485,0,0.969,0,1.454,0c0-0.424,0-0.85,0-1.272c-0.485,0-0.969,0-1.454,0
	c0-0.242,0-0.485,0-0.728c0.485,0,0.969,0,1.454,0c0-0.423,0-0.849,0-1.272c-0.485,0-0.969,0-1.454,0c0-0.242,0-0.485,0-0.727
	c0.485,0,0.969,0,1.454,0c0-0.423,0-0.849,0-1.272c-0.485,0-0.969,0-1.454,0c0-0.242,0-0.485,0-0.727c0.485,0,0.969,0,1.454,0
	c0-0.424,0-0.849,0-1.272c-0.485,0-0.969,0-1.454,0C56.467,48.661,56.467,48.297,56.467,47.934z"/>
<path id="path58" inkscape:connector-curvature="0" fill="#207245" d="M58.648,49.024c0.849,0,1.696,0,2.545,0
	c0,0.423,0,0.849,0,1.272c-0.849,0-1.696,0-2.545,0C58.648,49.873,58.648,49.448,58.648,49.024z"/>
<path id="path72" inkscape:connector-curvature="0" fill="#FFFFFF" d="M52.403,50.728c0.411-0.029,0.823-0.055,1.236-0.075
	c-0.485,0.994-0.972,1.988-1.467,2.979c0.5,1.018,1.011,2.028,1.512,3.046c-0.438-0.025-0.874-0.053-1.312-0.083
	c-0.309-0.758-0.686-1.49-0.907-2.283c-0.247,0.738-0.6,1.435-0.883,2.157c-0.398-0.005-0.796-0.021-1.194-0.038
	c0.467-0.914,0.917-1.836,1.399-2.744c-0.409-0.936-0.858-1.854-1.28-2.785c0.4-0.023,0.8-0.047,1.2-0.069
	c0.271,0.71,0.567,1.412,0.791,2.141C51.738,52.202,52.095,51.475,52.403,50.728z"/>
<path id="path90" inkscape:connector-curvature="0" fill="#207245" d="M58.648,51.023c0.849,0,1.696,0,2.545,0
	c0,0.424,0,0.849,0,1.272c-0.849,0-1.696,0-2.545,0C58.648,51.873,58.648,51.447,58.648,51.023z"/>
<path id="path108" inkscape:connector-curvature="0" fill="#207245" d="M58.648,53.023c0.849,0,1.696,0,2.545,0
	c0,0.423,0,0.849,0,1.272c-0.849,0-1.696,0-2.545,0C58.648,53.872,58.648,53.446,58.648,53.023z"/>
<path id="path114" inkscape:connector-curvature="0" fill="#207245" d="M58.648,55.022c0.849,0,1.696,0,2.545,0
	c0,0.423,0,0.849,0,1.272c-0.849,0-1.696,0-2.545,0C58.648,55.871,58.648,55.445,58.648,55.022z"/>
<path id="path120" inkscape:connector-curvature="0" fill="#207245" d="M58.648,57.021c0.849,0,1.696,0,2.545,0
	c0,0.424,0,0.849,0,1.272c-0.849,0-1.696,0-2.545,0C58.648,57.87,58.648,57.445,58.648,57.021z"/>
</svg>
